<svg width="42" height="48" xmlns="http://www.w3.org/2000/svg"><g fill="none"><path d="M30 0H6.125C2.742 0 0 2.686 0 6v36c0 3.314 2.742 6 6.125 6h29.75C39.258 48 42 45.314 42 42V12L30 0z" fill="#7178B3"/><path d="M11.133 29.696a259.77 259.77 0 001.846-2.83 2.64 2.64 0 00.205-.328.95.95 0 01.123-.205c.164.246.273.424.328.533.082.11.697 1.053 1.845 2.83h2.215l-3.199-4.266 2.871-4.306h-2.092l-1.517 2.666a18.85 18.85 0 01-.41.697c-.192-.273-.315-.506-.37-.697l-1.6-2.666h0-2.09l2.87 4.306L9 29.696h2.133zm13.34 0v-1.354h-4.47v-7.218h-1.764v8.572h6.234zm4.399.164c2.133-.055 3.24-.902 3.322-2.543-.027-.984-.547-1.723-1.558-2.215-.383-.219-.998-.424-1.846-.615-1.149-.219-1.682-.602-1.6-1.148.055-.575.506-.875 1.354-.903.984 0 1.545.438 1.681 1.313h0l1.764-.328c-.328-1.641-1.518-2.448-3.568-2.42-1.942.082-2.98.861-3.117 2.338-.055 1.257.738 2.064 2.378 2.42.247.054.616.164 1.108.328.191.054.328.095.41.123.766.273 1.135.67 1.107 1.19-.054.71-.56 1.08-1.517 1.107-1.203.027-1.887-.588-2.05-1.846h0l-1.724.369c.356 1.914 1.641 2.857 3.856 2.83z" stroke="#FFF" stroke-width=".1" fill="#FFF"/><path d="M30 6a6 6 0 006 6h6L30 0v6z" fill="#B7BCE5"/></g></svg>