<svg width="42" height="48" xmlns="http://www.w3.org/2000/svg"><g fill="none"><path d="M30 0H6.125C2.742 0 0 2.686 0 6v36c0 3.314 2.742 6 6.125 6h29.75C39.258 48 42 45.314 42 42V12L30 0z" fill="#93ACBF"/><path d="M12.24 29.736c2.051.028 3.063-1.107 3.035-3.404h0V21h-1.804v5.25c.027 1.367-.41 2.037-1.313 2.01-.93 0-1.408-.615-1.435-1.846h0L9 26.865c.273 1.942 1.354 2.899 3.24 2.871zm5.424-.164l.698-1.968h3.404l.697 1.968h1.969L21.151 21h-2.133l-3.281 8.572h1.927zm3.733-3.322h-2.625c.683-1.969 1.039-2.98 1.066-3.035.082-.274.15-.533.205-.78l.164.493c.028.11.055.191.082.246.028.082.397 1.107 1.108 3.076h0zm5.342 3.322V26.21h1.313l2.214 3.363h2.297l-2.625-3.486c1.45-.273 2.174-1.121 2.174-2.543-.11-1.64-1.19-2.488-3.24-2.543h0-3.938v8.572h1.805zm1.805-4.717h-1.805v-2.46h1.805c1.148 0 1.709.41 1.681 1.23.028.82-.533 1.23-1.681 1.23h0z" stroke="#FFF" stroke-width=".1" fill="#FFF"/><path d="M30 6a6 6 0 006 6h6L30 0v6z" fill="#BFD1E1"/></g></svg>